<?xml version="1.0" encoding="utf-8"?>
<!-- Generator: Adobe Illustrator 21.0.0, SVG Export Plug-In . SVG Version: 6.00 Build 0)  -->
<svg version="1.1" id="Layer_1" xmlns="http://www.w3.org/2000/svg" xmlns:xlink="http://www.w3.org/1999/xlink" x="0px" y="0px"
	 viewBox="0 0 500 500" style="enable-background:new 0 0 500 500;" xml:space="preserve">
<style type="text/css">
	.st0{fill:#BD3534;}
	.st1{clip-path:url(#SVGID_2_);fill:#ACABAB;}
	.st2{fill:none;stroke:#191919;stroke-miterlimit:10;}
	.st3{clip-path:url(#SVGID_4_);fill:#ACABAB;}
	.st4{fill:#212121;}
	.st5{clip-path:url(#SVGID_6_);fill:#212121;}
</style>
<path class="st0" d="M233.8,342.3H83.5c-14.3,0-26-11.6-26-26v-79.1c0-14.3,11.6-26,26-26h150.2c14.3,0,26,11.6,26,26v79.1
	C259.8,330.7,248.1,342.3,233.8,342.3z"/>
<polyline class="st0" points="158.6,389.5 169.1,326.1 210.4,336.9 158.6,389.5 "/>
<path class="st4" d="M390.3,121.3c30,0,54.4,24.3,54.4,54.4v85.8c0,30-24.3,54.4-54.4,54.4H198.9c-30,0-54.4-24.3-54.4-54.4v-85.8
	c0-30,24.3-54.4,54.4-54.4"/>
<polyline class="st4" points="307.4,392.4 323,298.3 384.3,314.4 307.4,392.4 "/>
</svg>
