<?xml version="1.0" encoding="utf-8"?>
<!-- Generator: Adobe Illustrator 21.0.0, SVG Export Plug-In . SVG Version: 6.00 Build 0)  -->
<svg version="1.1" id="Layer_1" xmlns="http://www.w3.org/2000/svg" xmlns:xlink="http://www.w3.org/1999/xlink" x="0px" y="0px"
	 viewBox="0 0 500 500" style="enable-background:new 0 0 500 500;" xml:space="preserve">
<style type="text/css">
	.st0{fill:#83AAA5;}
	.st1{fill:#BAB019;}
	.st2{fill:#F1F1F1;}
	.st3{fill:#F64343;}
	.st4{fill:#B2B2B2;}
	.st5{fill:#ED2D24;}
	.st6{fill:#ED2C24;}
	.st7{fill:#ED322E;}
	.st8{fill:#EE3124;}
	.st9{fill:#EC1C24;}
	.st10{fill:#EC3239;}
	.st11{fill:#EE3424;}
	.st12{fill:#EF4923;}
	.st13{fill:#EE3823;}
	.st14{fill:#F05723;}
	.st15{fill:#B3B3B3;}
	.st16{fill:#B3B2B2;}
	.st17{fill:#ECEBEB;}
	.st18{fill:#EC3138;}
	.st19{fill:#EA2B32;}
	.st20{fill:#E8272E;}
	.st21{fill:#EC2B32;}
	.st22{fill:#ED3F46;}
	.st23{fill:#EA3B42;}
	.st24{fill:#EA262D;}
	.st25{fill:#E6383E;}
	.st26{fill:#EC262E;}
	.st27{fill:#EC1D25;}
	.st28{fill:#E43037;}
	.st29{fill:#E2353C;}
	.st30{fill:#EA2129;}
	.st31{fill:#EA3138;}
	.st32{fill:#F1F0F0;}
	.st33{fill:#F1EAEB;}
	.st34{fill:#BBA1A2;}
	.st35{fill:#F0EFEF;}
	.st36{fill:#B4ADAE;}
	.st37{fill:#ED323A;}
	.st38{fill:#F1D19D;}
	.st39{fill:#F1D19E;}
	.st40{fill:#FEFEFE;}
	.st41{fill:#FE3F3F;}
	.st42{fill:#211F1C;}
	.st43{fill:#323232;}
	.st44{fill:#626262;}
	.st45{fill:#020202;}
	.st46{fill:#EEEEEE;}
	.st47{fill:#040404;}
	.st48{fill:#F8F8F8;}
	.st49{fill:#F5F5F5;}
	.st50{fill:#F4F4F4;}
	.st51{fill:#0A0A0A;}
	.st52{fill:#050505;}
	.st53{fill:#F05A24;}
	.st54{fill:#EBCF9A;}
	.st55{fill:#ECCF9B;}
	.st56{fill:#EDCF9B;}
	.st57{fill:#EFD09C;}
	.st58{fill:#E5CB96;}
	.st59{fill:#E9CD99;}
	.st60{fill:#5F5F5F;}
</style>
<g>
	<path class="st0" d="M433.6,237.4c0,12,0,24,0,36c-1,12.7-3.2,25.1-7.1,37.2c-6.6,20.4-16,39.4-29.1,56.4c-0.8,1.1-1.6,2.2-3,2.7
		c-2.6-0.1-3.5-2.3-4.8-3.9c-10.2-12.7-20.3-25.5-30.7-38c-2.6-3.1-4.1-6.7-5.2-10.6c-6.4-22.8-13.4-45.4-25.6-66
		c-5.3-8.9-11.8-16.8-21.8-21.1c-2.8-1.2-5.9-3-5.9-6.9c-0.1-27.2,0-54.4,0-81.6c0-12-3.2-15.2-15.4-15.2c-34.3,0-68.5,0-102.8,0
		c-2,0-4,0-6,0.3c-5.7,1-8.9,4.5-9.4,10.3c-0.1,1.7-0.1,3.4-0.1,5.1c0,23,0,46.1,0,69.1c0,2.5,0.2,4.9-0.4,7.3
		c-0.6,2.3-2.7,2.6-4.6,3.4c-8.6,3.6-10.3,10.4-4.3,17.5c1.5,1.8,3.3,3.2,4.7,5c1.9,2.3,2.1,4.3-0.5,6.3c-2.6,2-4.3,4.7-5.5,7.8
		c-2.5,6.7-1.5,10.4,4.2,14.9c4,3.2,4,3.2,0.9,7.3c-3.5,4.8-3.3,11.7,0.5,17.7c1.5,2.3,3.9,4,4.5,6.9c0.8,11.7,0.2,23.3,0.3,35
		c0.1,7.8,0,15.7,0,23.5c0,11.9,3.3,15.2,15.4,15.2c28.1,0,56.2,0,84.2,0c3.5,0,7.1-0.2,10.6,0.3c3.3,0.8,5.6,3.2,7.8,5.4
		c9.4,9.1,19.4,17.4,28.6,26.6c3.4,3.4,7.4,6,10.6,9.5c0.8,0.9,2.2,1.3,1.9,2.9c-6.1,4.3-13.2,6.2-20.2,8.5
		c-12.7,4.2-25.7,6.6-39,7.3c-12,0-24,0-36,0c-12.2-1-24.2-3.1-36-6.8c-26.5-8.3-50-21.6-70.6-40.3c-17.3-15.7-31.1-33.9-41.5-54.7
		C74.5,321.4,69,304.4,66,286.5c-0.7-4.4-0.3-8.8-1.4-13.1c0-12.3,0-24.6,0-36.9c0.9-12.4,3.2-24.5,6.9-36.4
		c8.2-26.2,21.4-49.4,39.9-69.8c15.9-17.5,34.3-31.5,55.4-42c16.2-8,33.2-13.6,51.1-16.5c4.5-0.7,9.1-0.3,13.6-1.3
		c11.7,0,23.4,0,35.1,0c8,1.1,16.1,1.3,24,3.2c31.5,7.7,59.4,21.9,83.5,43.9c17.3,15.7,31.1,33.9,41.5,54.7
		c8.2,16.3,13.8,33.5,16.7,51.5C433.1,228.3,432.7,232.9,433.6,237.4z"/>
	<path class="st38" d="M393.9,369.3C378.3,390,358.6,405.7,336,418c-3.5,1.9-7.1,3.4-10.7,5.2c-7-5.4-13.2-11.8-19.7-17.7
		c-9.1-8.3-18.2-16.8-27.2-25.2c2.3-1.7,5-1.2,7.5-1.1c15.2,0.9,16.9-11.6,13-22.1c-1.2-3.4-3.1-6.6-4.6-10
		c-7.9-21.5-8.6-43.7-5.3-65.9c1.3-8.6,0.7-16-3.5-23.4c-3.6-7.7-6.7-15.5-10.6-22.9c0.8,8.1,0.3,16.2,0.2,24.3
		c0,1.3,0.1,3.3-2.3,3.1c-1.5-1.9-1.1-4.1-1.2-6.2c-0.1-6.9-0.1-13.8,0-20.6c0-3.4-1.2-5.2-4.8-5c-2.8,0.2-5.4-0.7-8.1-1.1
		c-2.4,0-4.5-3.2-7.2-1c-1.8-1.6-2.9-3.9-5.4-4.8c1.1-2.4,4-3.2,4.9-5.8c1.8,1.3,3.3,1.4,5.2-0.2c3.3-2.8,7.3-4.6,11.6-5.2
		c3.2-0.5,4-2.2,3.9-5c-0.1-6.8-0.1-13.5,0-20.3c0-1.9-0.5-4.1,1.8-5.2c2.1,1.3,1.6,3.5,1.6,5.4c0.1,6.3,0,12.6,0,18.8
		c0,1.7-0.3,3.4,0.6,4.9c2.6,2.1,6,1.9,8.9,3.3c3.9,1.4,7.6,3.1,10.9,5.4c1.9,1.5,4.5,2.3,5.3,5c2.9,2.7,6.3,4.6,9.9,6.4
		c7.8,3.9,12.8,10.9,17.2,18.1c11.2,18.4,18.4,38.5,24,59.1c2.7,10,7,18.6,13.8,26.5C375.7,346.1,384.6,357.9,393.9,369.3z"/>
	<path d="M301.1,224.8c-2-1.4-3.9-2.7-5.9-4.1c-1.5-2.3-1.4-5-1.4-7.6c0-18.1,0-36.3,0-54.4c0-8.6-0.7-9.3-9.1-9.3
		c-34.1,0-68.2,0-102.4,0c-1.5,0-3.1,0-4.6,0.2c-2.7,0.3-4.1,1.9-4.4,4.5c-0.2,1.8-0.2,3.7-0.2,5.5c0,60.1,0,120.2,0,180.3
		c0,10,0.4,10.4,10.4,10.4c33,0,66.1,0,99.1,0.1c4.6,0,8.9-0.3,12.6-3.1c3.7,6.6,7.3,13.2,6.4,21.4c-0.8,6.7-4.6,11.1-11.4,11.3
		c-4,0.1-7.9,0.2-11.9,0.3c-5.7-0.1-11.3-0.2-17-0.2c-27.6,0-55.3,0-82.9,0c-9,0-13.2-4.2-13.3-13.2c-0.1-21-0.1-42-0.2-63.1
		c-1.4-2.4-1.4-5-1.3-7.6c0.4-16-0.2-32.1,0.2-48.1c0.2-7.3-0.1-14.7-0.2-22c0-2.1-0.2-4.3,1.3-6.1c0.1-26.4,0.1-52.9,0.2-79.3
		c0-12,3.6-15.6,15.7-15.6c35.5,0,71,0,106.5,0c10.2,0,14.2,4,14.2,14.2c0,26.9,0,53.8,0,80.7C301.5,221.5,301.9,223.2,301.1,224.8z
		"/>
	<path class="st39" d="M165,219.9c0,27.9,0,55.9,0,83.8c-8.7-7.7-9.8-16.8-2.8-25.6c1.4-1.7,0.3-2.1-0.7-2.7
		c-12.3-6.6-8.6-19.2-0.2-26c2.5-2.1,1.2-3.3-0.3-4.7c-2.3-2.2-4.8-4.3-6.4-7.2c-4.1-7.4-1.9-13.5,5.9-16.6
		C162,220.4,163.5,220.3,165,219.9z"/>
	<path class="st2" d="M295.3,347.2c-1,3.7-3.5,5-7.2,5c-36.4,0-72.8,0-109.2,0c-5.4,0-7.2-1.9-7.2-7.2c0-63.5,0-126.9,0-190.4
		c0-5.3,1.8-7.2,7.2-7.2c36.4,0,72.8,0,109.2,0c5.2,0,7.1,2,7.1,7.3c0,22,0,43.9,0,65.9c-3.4-1.8-6.8-3.6-10.1-5.4
		c-0.6-1.8-0.5-3.6-0.5-5.5c0-11.2,0.1-22.4,0-33.6c0-4.9-0.5-5.5-5.2-5.5c-30.6-0.1-61.1-0.1-91.7,0c-4.7,0-5.3,0.6-5.3,5.4
		c-0.1,41.6,0,83.3-0.1,124.9c0,3.8,1.5,5.1,5.2,5.1c30.6-0.1,61.1,0,91.7-0.1c4.7,0,5.2-0.5,5.3-5.4c0.1-12.3,0-24.6,0.1-36.9
		c0-2.4-0.5-5,1.5-7c3.4,6.5,6.4,12.5,4.9,20.9c-4.1,22.8-3.6,45.6,4.1,67.8C295.3,346,295.2,346.6,295.3,347.2z"/>
	<path class="st40" d="M286,256.7c0,15.4-0.1,30.7,0,46.1c0,3.5-0.7,4.8-4.6,4.8c-32.1-0.2-64.2-0.1-96.3,0c-3.4,0-4.4-1-4.4-4.4
		c0.1-43.2,0.1-86.3,0-129.5c0-3.8,1.2-4.6,4.7-4.6c31.9,0.1,63.9,0.1,95.8,0c3.5,0,4.8,0.8,4.7,4.6c-0.2,12.4-0.1,24.9-0.1,37.3
		c0,1.5,0.5,3.1-0.9,4.3c-3.5-0.3-6.6-2.3-10.2-1.9c-0.8-8.9-0.3-17.7-0.3-26.6c0-3.7-0.4-4.8-4.8-4.6c-12.1,0.7-24.2,0.2-36.3,0.2
		c-11.5,0-23,0-34.5,0c-5.4,0-5.8,0.4-5.8,5.7c0,11.2,0,22.4,0,33.6c0,11.6,0,23.3,0,34.9c0,4.7,0.6,5.3,5.3,5.3
		c11.6,0,23.3,0,34.9,0c13,0.3,26.1-0.6,39.1,0.5c2.4,0.2,1.9-1.3,1.9-2.6c0-7.5,0-15,0-22.6c0-1.5-0.5-3.1,0.5-4.5
		C279.4,240.5,282.8,248.6,286,256.7z"/>
	<path class="st40" d="M246.6,223.4c3.9-1,4.3,2.1,5.3,4.6c1.9-1.1,3.7-0.2,5.5,0.1c4.1,0.2,8.1,1.4,12.3,1c2.9-0.3,3.6,1.1,3.6,3.7
		c-0.1,9.8-0.1,19.5-0.1,29.3c-1.3,1.1-2.9,0.6-4.4,0.6c-11.8,0.1-23.5,0-35.3,0c-12.4,0-24.8-0.1-37.2,0.1c-3,0-3.9-0.8-3.9-3.8
		c0.2-12.4,0.1-24.8,0.1-37.2c0-11.8,0.1-23.6-0.1-35.4c-0.1-3.7,0.8-5,4.7-4.9c12.1,0.3,24.2,0.1,36.3,0.1c11.8,0,23.6,0,35.4,0
		c1.5,0,3.1-0.6,4.4,0.6c0,9-0.1,18.1,0.1,27.1c0,2.8-0.6,4-3.8,4.2c-6.7,0.4-11.9,4.2-16.8,8.5c-1.5-1,0.2-3.1-1.6-3.9
		c-3.3,1.9-6.8,1.2-10.3,0.8c-3.3-0.4-2.4-3.8-4.1-6.1c-1.7,2-0.7,5.6-4,6.2c-2.4,0.4-4.9,0.3-7.3,0.3c-0.6,0-1.2,0-1.8,0
		c-2.9,0.1-5.9-0.4-8.7,0.3c-3.2,0.8-2.4,5.3-5.9,6c2.8,1.5,4.5,1.3,6-1.3c2.1-3.8,5.3-3.8,7.7-0.1c2.5,3.8,7.4,3.7,9.9-0.1
		c1.9-3,5.1-3.4,7.1-0.8C243,227.5,243,227.5,246.6,223.4z"/>
	<path d="M246.6,223.4c0.5,4-1.2,5.3-5.1,4.8c-2-0.2-2.7-0.8-2.5-2.7c0.2-1.7-0.1-2.9-2.4-2.8c-2,0.1-3.4,0.4-3,2.7
		c0.4,2.3-0.7,2.9-2.9,2.7c-2.1-0.2-4.3-0.2-6.4,0c-2.1,0.2-3.2-0.4-2.9-2.7c0.3-1.9-0.4-2.8-2.5-2.8c-2.1,0-3.2,0.6-3,2.9
		c0.1,1.1,0.5,2.7-1.5,2.6c-2.7-0.2-5.6,1.1-7.9-0.8c-0.6-0.5-1.6-3.9,1.7-3.9c2.5,0,3.4-0.9,3-3.2c-0.4-2.5,1.3-2.2,2.9-2.2
		c5.4,0,10.7-0.1,16.1,0.1c2.8,0.1,4.3-0.3,4-3.7c-0.1-1.4-1.3-3.8,2.1-3.9c3.5-0.1,2.7,2.2,2.5,3.9c-0.2,2.7,0.4,3.9,3.4,3.6
		c2.9-0.3,5.8,0,8.7,0.1C252.5,222.4,249,222.5,246.6,223.4z"/>
	<path class="st41" d="M273.1,182.2c-13.2-0.1-26.4-0.2-39.7-0.3c-0.3-0.2-0.4-0.3-0.3-0.5c0.1-0.2,0.2-0.3,0.3-0.3
		c12.9-0.1,25.8-0.1,38.7-0.3c2.8,0,2.8,1.4,2.8,3.5c-0.1,9.7-0.1,19.4-0.1,29.1c-1.5-1.2-0.8-2.8-0.8-4.2c-0.1-7.6,0-15.2-0.1-22.8
		C274,185,274.8,183.3,273.1,182.2z"/>
	<path class="st41" d="M233.4,262.5c13.2-0.1,26.4-0.2,39.7-0.3c1.8-1.2,0.8-3.1,0.9-4.6c0.1-8.4,0.1-16.8,0.1-25.2
		c0-0.2,0-0.4,0-0.4c1-0.5,0.7,0.5,1,0.9c0,9-0.1,18-0.1,27c0,2.2-0.1,3.7-3.1,3.6c-12.8-0.2-25.7-0.2-38.5-0.3
		c-0.3-0.2-0.4-0.3-0.3-0.5C233.2,262.5,233.3,262.5,233.4,262.5z"/>
	<path class="st42" d="M257.4,228.1c-1.8,0-3.7-0.1-5.5-0.1c0.5-0.6-1.3-3.2,1.6-1.8C254.7,226.8,256.3,226.9,257.4,228.1z"/>
	<path class="st43" d="M233.4,361c5.4,0,10.7,0.1,16.1,0c3.6-0.1,6.5,0.8,6.9,4.9c0.4,3.4-2.2,5.9-6.5,6c-6.3,0.2-12.6,0.1-18.8,0.1
		c-4.4,0-8.9,0.1-13.3,0c-5.1-0.1-7.4-2-7.4-5.6c0.1-3.7,2.3-5.3,7.4-5.3C223,361,228.2,361,233.4,361z"/>
	<path class="st44" d="M233.5,140.4c-6.3,0-12.6,0-18.9,0c-1.4,0-3.4,0.5-3.2-2c0.1-2.2,2-1.5,3.2-1.5c12.6,0,25.1,0,37.7,0
		c1.2,0,3-0.7,3.2,1.5c0.2,2.5-1.7,2.1-3.2,2.1C246,140.5,239.7,140.4,233.5,140.4z"/>
	<path class="st41" d="M233.4,262.5c0,0.3,0,0.5,0,0.8c-12.8,0.1-25.7,0.1-38.5,0.3c-2.5,0-3-1-3-3.2c0.1-12.8,0.1-25.7,0.2-38.5
		c0.3-0.4,0.5-0.4,0.8,0c0.1,11.5,0.1,22.9,0.2,34.4c0.1,7.1-0.9,6.1,6,6.2C210.5,262.4,222,262.4,233.4,262.5z"/>
	<path class="st41" d="M192.9,221.7c-0.3,0-0.5,0-0.8,0c0-12.5,0-25.1-0.2-37.6c0-2.3,0.5-3.3,3-3.2c12.8,0.2,25.7,0.2,38.5,0.3
		c0,0.3,0,0.5,0,0.8c-11.6,0.1-23.3,0.4-34.9,0c-4.9-0.2-5.7,1.5-5.6,5.9C193.2,199.1,192.9,210.4,192.9,221.7z"/>
	<path d="M243.6,245.8c-2.3,0-4.6,0-6.9-0.2c-2.2-0.2-3.6,0.3-3.2,2.9c0.3,2.2-1.3,1.8-2.7,1.9c-1.7,0.1-2.1-0.6-2-2.1
		c0.1-1.8,0-3.7,0-5.5c0-0.6,0.2-1.2,0.4-1.8c5.8,2.7,3.4-6.1,7.8-5.5c1.7,0.2,3.4,0,5.1,0c0.9,0,2.2,0,2-1.2
		c-0.6-4.4,2.4-3.5,4.9-3.5c2.6,0,5.2,0,7.8,0c2.3,0,5.2-0.9,4.6,3.3c-0.2,1.2,0.9,1.5,1.9,1.4c3.5-0.7,3.9,1.5,3.4,4
		c-0.5,2.3,2.5,6.8-3.4,6.2c-0.5,0-1.6,0.5-1.6,0.5c0.6,2.9-2.5,4.1-2.7,6.5c-0.2,1.8,0.1,3.2-2.6,3.2c-3.2,0-2.2-2.2-2.4-3.8
		c0-0.3-0.1-0.6-0.2-0.9c0.4-0.8,1.4-1.2,1.2-3.4c-0.8,4.3-3.9,2.1-5.6,3.4c0,3.3-0.8,5.6-4.8,4.6c-2.2-7.5,0.8-12.7,7.1-16.5
		c0.4-0.6,1-1.3,0.1-1.8c-0.6-0.4-1,0.2-1.3,0.8c-0.4,0.8-0.5,1.7-1.3,2.3C246.2,241.1,244.8,243.3,243.6,245.8z"/>
	<path d="M212.2,212.5c-3.5,0-8.2,1.4-10.2-0.4c-2.4-2.1-0.7-6.9-0.8-10.5c0-3.6-1.6-8.4,0.6-10.6c2.2-2.2,7-0.7,10.6-0.6
		c3.6,0,8.4-1.7,10.5,0.8c1.8,2,0.6,6.7,0.5,10.2c-0.1,3.6,1.6,8.5-0.7,10.5c-2.2,1.9-6.9,0.7-10.6,0.9
		C212.2,212.7,212.2,212.6,212.2,212.5z"/>
	<path d="M266.7,201.4c-0.4,3.7,1.5,8.7-0.8,10.6c-2.2,1.8-7,0.6-10.7,0.6c-3.5,0-8.1,1.2-10.2-0.6c-2.5-2.1-0.7-6.9-0.8-10.5
		c0-3.6-1.6-8.4,0.7-10.5c2-1.8,6.7-0.6,10.2-0.7c0.2,0,0.3,0,0.5,0c3.5,0.1,8.2-1.2,10.2,0.6C268.3,193,266.3,197.8,266.7,201.4z"
		/>
	<path d="M223.3,244.3c0,3.7,1.4,8.6-0.4,10.7c-2.2,2.5-7.2,0.7-11,0.8c-3.5,0.1-8.2,1.6-10.1-0.7c-1.8-2.1-0.7-6.7-0.6-10.2
		c0.1-3.8-1.7-8.8,0.8-11c2.1-1.8,7-0.6,10.7-0.5c3.5,0.1,8.2-1.6,10.1,0.7c1.8,2.2,0.7,6.7,0.9,10.2
		C223.5,244.3,223.4,244.3,223.3,244.3z"/>
	<path class="st45" d="M238.8,199.9c0.5,3.5,0.6,6-3.8,5.4c-1.8-0.2-1.5,1.6-1.4,2.7c0.2,2.2-1,2.4-2.8,2.4c-2.2,0-2-1.3-2-2.7
		c0-1.7-0.7-3.9,0.1-4.9c2.2-2.7,4.6-6.1,7.6-7.1C240.5,194.5,238.1,198.8,238.8,199.9z"/>
	<path class="st46" d="M253.6,240.2c-4.7-1.1-3.8,4.7-7.5,5.9c-4.3,1.4-1.2,6.4-1.7,9.8c-2-3.2-0.6-6.7-0.9-10
		c-0.9-4.6,1.2-6.2,5.5-5.7C250.6,239,252.1,238.9,253.6,240.2z"/>
	<path d="M231.3,195c-2,0.4-2.4-0.5-2.5-2.2c-0.1-2.2,0.9-2.4,2.7-2.4c2.1-0.1,2,1.1,2.1,2.6C233.7,194.8,232.9,195.4,231.3,195z"/>
	<path d="M231,230.9c1.6-0.2,2.7,0.1,2.5,2.1c-0.1,1.4,0.1,2.7-2,2.6c-1.7-0.1-2.9-0.1-2.8-2.4C228.9,231.6,229.1,230.5,231,230.9z"
		/>
	<path d="M205.8,220.2c0.2,1.6,0,2.7-2.1,2.5c-1.4-0.1-2.7,0.1-2.6-2c0.1-1.7,0.1-2.9,2.4-2.8C205.2,218.1,206.2,218.3,205.8,220.2z
		"/>
	<path class="st47" d="M236.5,255.8c-1.7,0.3-2.4-0.3-2.4-2.2c0-1.9,0.4-2.7,2.5-2.7c2.1,0,2.4,0.9,2.4,2.7
		C239,255.7,238.1,256,236.5,255.8z"/>
	<path d="M266.6,253.2c0.1,1.5,0.2,2.8-2,2.6c-1.6-0.1-3.1,0.1-2.8-2.2c0.1-1.4-0.1-2.7,2-2.6C265.4,251.1,267.1,250.9,266.6,253.2z
		"/>
	<path class="st48" d="M249.3,251.2c1.9-1.2,5.8-0.3,4.5-4.6c-0.2-0.6,0.6-0.9,1.2-1c0.6,0,1.4,0.1,1.4,0.8c-0.1,2,1.4,5-2.7,4.7
		C252.3,251.2,250.8,251.2,249.3,251.2z"/>
	<path class="st49" d="M253.6,240.2c-1.5,0-3,0-4.5,0c0.5-1.6-1.6-4.2,1.7-4.6C255.2,235,254.1,237.8,253.6,240.2z"/>
	<path class="st48" d="M218.7,201.7c0,6.2,0,6.2-7.6,6.2c-5.2,0-5.2,0-5.2-7.3c0-5.6,0-5.1,8-5.7
		C220.3,194.4,218.5,198.4,218.7,201.7z"/>
	<path class="st50" d="M255.2,207.9c-6.2,0-6.2,0-6.2-7.2c0-5.7,0-5.8,7.3-5.7c6.7,0.1,5.5-1.2,5.6,7.9
		C261.9,207.9,261.9,207.9,255.2,207.9z"/>
	<path class="st50" d="M218.7,244.8c0,6.3,0,6.3-7.2,6.3c-5.7,0-5.7,0-5.7-7.9c0-5,0.1-4.4,8-5.1
		C220.3,237.5,218.5,241.6,218.7,244.8z"/>
	<path class="st51" d="M213.2,197.9c4.1-0.6,2.5,2.6,2.8,4.5c0.6,3.7-2.2,2.5-4.1,2.8c-3.8,0.6-3-2-3.3-4.2
		C208.3,197.1,211,198,213.2,197.9z"/>
	<path class="st52" d="M255.4,205c-3.1,0.8-3.7-0.6-3.7-3.3c0-2.8,0.5-3.9,3.7-4c3.5-0.1,3.4,1.7,3.5,4.2
		C259,204.9,257.9,205.8,255.4,205z"/>
	<path class="st52" d="M215.9,245.1c0.9,3.3-1.5,2.7-3.7,3c-3.3,0.3-3.5-1.3-3.7-4c-0.2-3.9,2.3-2.9,4.4-3.2
		C216.5,240.4,216,242.7,215.9,245.1z"/>
</g>
</svg>
