<?xml version="1.0" encoding="utf-8"?>
<!-- Generator: Adobe Illustrator 21.0.0, SVG Export Plug-In . SVG Version: 6.00 Build 0)  -->
<svg version="1.1" id="Layer_1" xmlns="http://www.w3.org/2000/svg" xmlns:xlink="http://www.w3.org/1999/xlink" x="0px" y="0px"
	 viewBox="0 0 500 500" style="enable-background:new 0 0 500 500;" xml:space="preserve">
<style type="text/css">
	.st0{fill:#83AAA5;}
	.st1{fill:#BAB019;}
	.st2{fill:#F1F1F1;}
	.st3{fill:#F64343;}
	.st4{fill:#B2B2B2;}
	.st5{fill:#ED2D24;}
	.st6{fill:#ED2C24;}
	.st7{fill:#ED322E;}
	.st8{fill:#EE3124;}
	.st9{fill:#EC1C24;}
	.st10{fill:#EC3239;}
	.st11{fill:#EE3424;}
	.st12{fill:#EF4923;}
	.st13{fill:#EE3823;}
	.st14{fill:#F05723;}
	.st15{fill:#B3B3B3;}
	.st16{fill:#B3B2B2;}
	.st17{fill:#ECEBEB;}
	.st18{fill:#EC3138;}
	.st19{fill:#EA2B32;}
	.st20{fill:#E8272E;}
	.st21{fill:#EC2B32;}
	.st22{fill:#ED3F46;}
	.st23{fill:#EA3B42;}
	.st24{fill:#EA262D;}
	.st25{fill:#E6383E;}
	.st26{fill:#EC262E;}
	.st27{fill:#EC1D25;}
	.st28{fill:#E43037;}
	.st29{fill:#E2353C;}
	.st30{fill:#EA2129;}
	.st31{fill:#EA3138;}
	.st32{fill:#F1F0F0;}
	.st33{fill:#F1EAEB;}
	.st34{fill:#BBA1A2;}
	.st35{fill:#F0EFEF;}
	.st36{fill:#B4ADAE;}
	.st37{fill:#ED323A;}
	.st38{fill:#F1D19D;}
	.st39{fill:#F1D19E;}
	.st40{fill:#FEFEFE;}
	.st41{fill:#FE3F3F;}
	.st42{fill:#211F1C;}
	.st43{fill:#323232;}
	.st44{fill:#626262;}
	.st45{fill:#020202;}
	.st46{fill:#EEEEEE;}
	.st47{fill:#040404;}
	.st48{fill:#F8F8F8;}
	.st49{fill:#F5F5F5;}
	.st50{fill:#F4F4F4;}
	.st51{fill:#0A0A0A;}
	.st52{fill:#050505;}
	.st53{fill:#F05A24;}
	.st54{fill:#EBCF9A;}
	.st55{fill:#ECCF9B;}
	.st56{fill:#EDCF9B;}
	.st57{fill:#EFD09C;}
	.st58{fill:#E5CB96;}
	.st59{fill:#E9CD99;}
	.st60{fill:#5F5F5F;}
</style>
<g>
	<path class="st0" d="M266.6,440.8c-9.2,0-18.4,0-27.7,0c-7.7-1.4-15.5-0.9-23.2-2.6c-31.8-7.4-59.8-21.9-83.9-44
		c-15.2-13.9-28-29.7-37.8-47.8c-11.9-22-20.4-45-20.7-70.4c0-0.5-0.2-0.9-0.5-1.3c0-1.2,0-2.5,0-3.7c0.7-1.8,0.7-3.7,0-5.5
		c0-6.1,0-12.3,0-18.4c0.7-1.8,0.7-3.7,0-5.5c0-1.2,0-2.5,0-3.7c1.4-7.8,0.8-15.8,2.7-23.6c7.6-31.6,22-59.4,43.9-83.5
		c20.6-22.6,45.2-39,73.7-49.7c14-5.2,28.5-8.6,43.5-8.8c1,0,2.2,0.3,3.1-0.4c0.9,0,1.8,0,2.8,0c1.8,0.7,3.7,0.7,5.5,0
		c6.1,0,12.3,0,18.4,0c1.8,0.7,3.7,0.7,5.5,0c0.9,0,1.8,0,2.8,0c8.3,1.3,16.8,0.8,25,2.8c31.4,7.7,59.1,22,83,43.8
		c22.4,20.4,38.7,44.7,49.4,72.9c5.5,14.5,9,29.3,9.1,44.9c0,0.9-0.3,1.9,0.5,2.6c0,12,0,24,0,36c-1.3,8-0.9,16.2-2.8,24.1
		c-7.6,31.2-21.8,58.9-43.5,82.7c-14.3,15.7-30.6,28.8-49.3,38.8c-21.8,11.6-44.5,19.9-69.6,20c-0.6,0-1.2,0-1.7,0.5
		c-1.2,0-2.5,0-3.7,0C269.6,440.1,268.1,440.1,266.6,440.8z"/>
	<path class="st1" d="M248.1,71.9c-1.8,1.1-3.7,1.6-5.5,0C244.4,71.9,246.3,71.9,248.1,71.9z"/>
	<path class="st1" d="M272.1,71.9c-1.8,1.6-3.7,1.1-5.5,0C268.4,71.9,270.3,71.9,272.1,71.9z"/>
	<path class="st1" d="M72.8,241.6c1.6,1.8,1.1,3.7,0,5.5C72.8,245.3,72.8,243.4,72.8,241.6z"/>
	<path class="st1" d="M72.8,265.6c1.1,1.8,1.6,3.7,0,5.5C72.8,269.3,72.8,267.4,72.8,265.6z"/>
	<path class="st1" d="M266.6,440.8c1.5-1.2,3.1-1.4,4.6,0C269.6,440.8,268.1,440.8,266.6,440.8z"/>
	<path class="st2" d="M365.1,214.8c2.3,2.2,2,5,2,7.8c0,9,0,17.9,0,26.9c-0.1,1.5-1.2,2.4-1.7,3.7c-0.8,1.1-1.5,2.3-1.5,3.7
		c-1.3,3.3,2.1,4.1,3.2,6.2c0,30.1,0.1,60.3,0,90.4c0,8.3-5.3,13.5-13.6,13.5c-63,0-126,0-189.1,0c-8.5,0-15.9-7-15.9-15.2
		c0-45.2,0-90.4,0-135.6c0-0.5,0.1-0.9,0.1-1.4c0.9-1.1,2.1-1.8,3.6-1.9c0.8,0,1.5-0.1,2.3-0.1c68.3-0.1,136.5-0.1,204.8,0
		C361.4,212.9,363.6,212.8,365.1,214.8z"/>
	<path class="st3" d="M365.1,214.8c-72.2,0-144.3,0-216.5,0c0-18.1-0.2-36.1-0.1-54.2c0-6.5,5.3-11.8,11.9-12.2c1.8-0.1,3.7,0,5.5,0
		c1.9,1.1,2,3,2,4.8c0,8.4,0.3,16.8-0.2,25.2c-2.7,4.2-5.2,8.5-3.7,14c1.6,5.7,7.6,9.5,13.9,8.4c6.2-1.1,10.4-6.8,9.9-12.8
		c-0.3-3.7-2.4-6.5-4.1-9.5c-0.6-8.4-0.2-16.8-0.2-25.2c0-1.9,0.1-3.7,2-4.8c47.3,0,94.6,0,142,0c1.9,1.1,2,3,2,4.8
		c0,8.4,0.3,16.8-0.2,25.2c-2.7,4.2-5.2,8.5-3.7,14c1.6,5.7,7.6,9.5,13.9,8.4c6.2-1.1,10.4-6.8,9.9-12.8c-0.3-3.7-2.4-6.5-4.1-9.5
		c-0.6-8.4-0.2-16.8-0.2-25.2c0-1.9,0.1-3.7,2-4.8c2.3,0,4.6-0.1,6.9,0c6.4,0.3,11.4,5.1,11.4,11.6
		C365.3,178.3,365.2,196.6,365.1,214.8z"/>
	<path class="st4" d="M166,179.8c0-10.4,0-20.9,0-31.3c-0.1-3.2,1.2-4.8,4.7-4.5c3.4,0.3,6.8,0.3,10.1,0c3.5-0.3,4.7,1.3,4.7,4.5
		c0,10.4,0,20.9,0,31.3c2.2,3.8,2.1,7.9,1.8,12.1c-0.3,3.4-2.4,5.2-5.7,5.5c-3.8,0.3-7.7,0.3-11.5,0c-3.4-0.2-5.4-2.1-5.7-5.5
		C163.9,187.7,163.8,183.5,166,179.8z"/>
	<path class="st4" d="M346.9,148.4c0,10.4,0,20.9,0,31.3c2.2,3.8,2.1,7.9,1.8,12.1c-0.3,3.4-2.4,5.2-5.7,5.5
		c-3.8,0.3-7.7,0.3-11.5,0c-3.4-0.2-5.4-2.1-5.7-5.5c-0.4-4.1-0.4-8.3,1.8-12.1c0-10.4,0-20.9,0-31.3c-0.1-3.2,1.2-4.8,4.7-4.5
		c3.4,0.3,6.8,0.3,10.1,0C345.7,143.6,346.9,145.2,346.9,148.4z"/>
	<path class="st5" d="M414.3,249.1c-3.6,3.4-5.7,2.8-7.2-2.2c-1.6-5.2-1.6-5.2-7-5.3c3.3-1.5,6.1-2.6,4.8-6.8c2.2,7.2,6.7,1,9.8,2.4
		c-0.4,1.9-2.2,1.5-3.2,2.2c-1.2,0.7-3.5,0.4-3.6,2.3c0,2.4,0.5,4.9,2.2,6.8c1.1,1.2,2.2,0.6,3.2-0.4
		C414.1,248,414.6,248.2,414.3,249.1z"/>
	<path class="st6" d="M385.5,250.7c4.1-1.2,4.2-1.1,3.6,3.5c1.6,1.3,2.3-2.9,3.5-0.7c0.7,1.3-1.2,2.6-2.6,3.2
		c-1.5,0.7-3.1,1.3-4.5-0.3C384.8,254.5,384.9,252.6,385.5,250.7z"/>
	<path class="st7" d="M367.1,263.2c-5.1-0.4-5.6-1.1-4.4-6.8c2.1-0.3,2.1,1.8,3.1,2.8c0.3,0.7,0.8,1.2,1.4,1.7c2.9,0,4.9-3,8.4-2.4
		C373.1,261.3,369.9,262,367.1,263.2z"/>
	<path class="st6" d="M394.7,247.9c0-2.1,0.5-3.9,2.6-1.5c2.2,2.5,4.5,4.1,8.4,2c-2.8,3.6-3.7,3.7-9.1,0.8c-1.3,1.2-0.5,2.9-1.1,4.3
		C393.1,252,394.6,249.8,394.7,247.9z"/>
	<path class="st8" d="M381.1,255.6c-0.2,1.6-0.4,3.7-2.1,4c-1.9,0.3-2.7-1.8-3.6-3.3c0.2-0.4,0.5-0.7,0.9-0.9
		c3.1,3.1,3.1-0.1,3.8-1.9C381.9,253.6,381.4,254.7,381.1,255.6z"/>
	<path class="st2" d="M367.1,260.9c-0.9,0.6-1.8,0.4-2.8,0.1c0.4-2.1-3.4-6.1,2.6-5.7C367,257.2,367.1,259,367.1,260.9z"/>
	<path class="st9" d="M364.2,252.5c0.3-1.6,1.5-2.3,2.9-2.9c1.2,1.6,2.5,3.2,0,4.9C365.9,254.2,363.9,255.1,364.2,252.5z"/>
	<path class="st10" d="M364.2,252.5c1,0.7,1.9,1.3,2.9,2c-0.1,0.3-0.1,0.6-0.2,0.9c-3.9,0.5-2.9,3.2-2.6,5.7
		c-1.5-1.2-0.5-3.3-1.8-4.6C362.7,254.9,363.2,253.6,364.2,252.5z"/>
	<path class="st11" d="M376.3,255.5c-0.3,0.3-0.6,0.6-0.9,0.9c-1.3-0.8-2.1-1.9-2.6-3.7C375.1,252.7,375.6,254.2,376.3,255.5z"/>
	<path class="st12" d="M381.1,255.6c-0.3-0.7-0.6-1.3-0.9-2c0.1-1.1-0.2-2.5,1.6-3C382.4,252.5,382.1,254.1,381.1,255.6z"/>
	<path class="st13" d="M394.7,247.9c0.3,1.9-0.4,3.9,0.8,5.6c-0.5,1-1.3,0.9-1.5,0C393.8,251.6,393.5,249.6,394.7,247.9z"/>
	<path class="st11" d="M385.5,250.7c0,1.9,0,3.8,0,5.7C384.4,254.5,384.4,252.6,385.5,250.7z"/>
	<path class="st14" d="M414.3,249.1c-0.3-0.4-0.7-0.7-1-1.1c0.5-0.8,0.7-2.5,2-1.4C416.2,247.5,415.1,248.5,414.3,249.1z"/>
	<path class="st4" d="M300,254.2c-5.2-0.1-6.2-3-5.9-7.7c0.4-5.5,0.2-11,0.1-16.6c-0.1-2.9,0.8-4.2,3.9-4.1c6.7,0.2,13.5,0.1,20.2,0
		c2.6,0,3.6,0.9,3.5,3.5c-0.1,6.7-0.1,13.5,0,20.2c0,3.1-1.4,4-4.2,3.9c-5.1-0.1-10.1,0.1-15.2,0.1
		C301.8,254.8,301.1,255.6,300,254.2z"/>
	<path class="st4" d="M341,353.1c-3.2,0-6.5-0.1-9.7,0c-2.7,0.1-3.9-0.7-3.9-3.7c0.1-6.8,0.1-13.5,0-20.3c-0.1-2.9,1.2-3.7,3.9-3.6
		c6.6,0.1,13.2,0.1,19.8,0c2.7,0,3.9,0.8,3.9,3.7c-0.1,6.8-0.1,13.5,0,20.3c0.1,2.9-1.2,3.7-3.9,3.6
		C347.8,353,344.4,353.1,341,353.1z"/>
	<path class="st4" d="M187.1,339.6c0,3.2-0.1,6.5,0,9.7c0.1,2.7-0.8,3.9-3.7,3.8c-6.8-0.1-13.5-0.1-20.3,0c-2.9,0.1-3.7-1.3-3.6-3.9
		c0.1-6.6,0.1-13.2,0-19.8c0-2.7,0.8-3.9,3.7-3.8c6.8,0.1,13.5,0.1,20.3,0c2.9-0.1,3.7,1.3,3.6,3.9
		C187.1,332.9,187.1,336.3,187.1,339.6z"/>
	<path class="st15" d="M173.1,253.5c-3.2,0-6.4-0.1-9.7,0c-2.7,0.1-3.9-0.8-3.8-3.7c0.1-6.9,0.1-13.8,0-20.7c0-2.3,0.9-3.3,3.2-3.3
		c7.1,0.1,14.1,0.1,21.2,0c2.5,0,3.1,1.2,3.1,3.4c-0.1,6.9-0.1,13.8,0,20.7c0,2.5-0.9,3.6-3.5,3.5
		C180.2,253.4,176.6,253.5,173.1,253.5z"/>
	<path class="st15" d="M341.7,225.9c3.2,0,6.4,0.1,9.7,0c2.9-0.2,3.7,1.1,3.7,3.8c-0.1,6.6-0.1,13.2,0,19.8c0.1,2.9-0.8,4.2-3.9,4.1
		c-6.6-0.2-13.2-0.2-19.8,0c-3.1,0.1-4-1.2-3.9-4.1c0.1-6.4,0.2-12.9,0-19.3c-0.1-3.1,0.8-4.5,4.1-4.3
		C335,226.1,338.4,225.9,341.7,225.9z"/>
	<path class="st4" d="M206.8,253.5c-3.4,0-6.7-0.1-10.1,0c-2.8,0.1-3.8-1.2-3.8-3.9c0.1-6.7,0.1-13.5,0-20.2c0-2.5,0.8-3.6,3.5-3.6
		c6.9,0.1,13.8,0.1,20.7,0c2.6,0,3.5,1,3.5,3.5c-0.1,6.9-0.1,13.8,0,20.7c0,2.6-1.1,3.5-3.6,3.4
		C213.6,253.4,210.2,253.5,206.8,253.5z"/>
	<path class="st4" d="M226.9,238.6c0.4-3.4-1.8-8.8,0.8-11.6c2.9-3,8.4-0.8,12.8-1c3.5-0.2,7,0,10.6-0.1c2.3-0.1,3.3,0.9,3.3,3.2
		c-0.1,6.9,0,13.8,0,20.7c0,2.4-0.8,3.8-3.4,3.7c-7-0.1-14.1-0.1-21.1,0c-2.2,0-3-1-3-3.1C227,246.7,226.9,243.1,226.9,238.6z"/>
	<path class="st4" d="M287.8,240.1c0,3.4-0.1,6.7,0,10.1c0.1,2.3-0.9,3.3-3.2,3.3c-6.9-0.1-13.8-0.1-20.7,0c-2.5,0-3.6-1.1-3.6-3.6
		c0-6.9,0-13.8,0-20.7c0-2.2,0.7-3.4,3.1-3.4c7,0.1,14.1,0.1,21.1,0c2.3,0,3.3,0.9,3.3,3.2C287.7,232.8,287.8,236.5,287.8,240.1z"/>
	<path class="st15" d="M239.7,286.9c-3.5-0.4-8.9,1.9-11.7-0.9c-3-2.9-0.8-8.5-1-12.8c-0.2-3.5,0-7.1-0.1-10.6
		c-0.1-2.4,0.9-3.3,3.3-3.3c6.9,0.1,13.8,0.1,20.7,0c2.6,0,3.6,1.2,3.5,3.7c-0.1,6.9-0.1,13.8,0,20.7c0,2.4-1.1,3.3-3.4,3.2
		C247.5,286.8,244,286.9,239.7,286.9z"/>
	<path class="st15" d="M274.4,293.3c3.4,0,6.8,0.1,10.1,0c2.3-0.1,3.3,0.9,3.3,3.2c-0.1,6.9-0.1,13.8,0,20.7c0,2.5-0.8,3.6-3.4,3.6
		c-6.8-0.1-13.5-0.1-20.3,0c-2.7,0-3.9-1.1-3.9-3.8c0.1-6.8,0.1-13.5,0-20.3c0-2.6,1-3.6,3.6-3.5
		C267.3,293.4,270.9,293.3,274.4,293.3z"/>
	<path class="st15" d="M220.5,307.9c-0.6,3.6,2,9.1-1.1,12c-2.9,2.7-8.2,0.7-12.5,0.8c-3.5,0.1-7.1,0-10.6,0c-2.3,0-3.4-1-3.4-3.3
		c0-7.1,0-14.1,0-21.2c0-2.2,1-3,3.1-3c7.1,0.1,14.1,0.1,21.2,0c2.3,0,3.4,0.9,3.3,3.2C220.4,300,220.5,303.5,220.5,307.9z"/>
	<path class="st15" d="M240.6,293.3c3.4,0,6.8,0.1,10.1,0c2.9-0.1,3.7,1.1,3.7,3.8c-0.1,6.6-0.1,13.2,0,19.8c0,2.6-0.9,4-3.7,3.9
		c-6.8-0.1-13.5-0.1-20.3,0c-2.5,0-3.6-0.8-3.6-3.5c0.1-6.9,0.1-13.8,0-20.7c0-2.7,1.1-3.5,3.6-3.4
		C233.9,293.3,237.2,293.3,240.6,293.3z"/>
	<path class="st15" d="M220.5,273.9c-0.6,3.6,2,9.2-1.1,12.1c-2.8,2.7-8.2,0.7-12.5,0.9c-3.2,0.1-6.5-0.1-9.7,0.1
		c-3.1,0.2-4.5-0.8-4.4-4.1c0.2-6.5,0.1-12.9,0-19.4c0-2.9,1-4.2,4-4.2c6.6,0.1,13.2,0.1,19.8,0c2.7,0,3.9,0.9,3.8,3.7
		C220.4,266.4,220.5,269.8,220.5,273.9z"/>
	<path class="st4" d="M220.5,339.7c0,3.2-0.1,6.4,0,9.7c0.1,2.7-0.8,3.9-3.7,3.8c-6.6-0.1-13.2-0.1-19.8,0c-2.9,0.1-4.2-0.9-4.2-4
		c0.1-6.6,0.1-13.2,0-19.8c0-2.7,1.1-3.9,3.8-3.8c6.7,0.1,13.5,0.1,20.2,0c2.5,0,3.6,0.9,3.6,3.5
		C220.4,332.6,220.5,336.1,220.5,339.7z"/>
	<path class="st4" d="M341.7,293.3c3.2,0,6.4,0.1,9.6,0c2.9-0.1,3.7,1.1,3.7,3.8c-0.1,6.6-0.1,13.2,0,19.8c0.1,3-1.3,4-4.1,4
		c-6.4-0.1-12.9-0.1-19.3,0c-2.9,0-4.2-0.9-4.1-4c0.1-6.6,0.1-13.2,0-19.8c0-2.7,0.8-3.9,3.7-3.8
		C334.7,293.4,338.2,293.3,341.7,293.3z"/>
	<path class="st4" d="M307.6,353.1c-3.2,0-6.4-0.1-9.7,0c-2.7,0.1-3.9-0.8-3.8-3.7c0.1-6.7,0.1-13.5,0-20.2
		c-0.1-2.9,1.2-3.7,3.9-3.7c6.6,0.1,13.2,0.1,19.8,0c3-0.1,4.1,1.3,4,4.1c-0.1,6.4-0.1,12.9,0,19.3c0,2.9-1,4.3-4,4.1
		C314.4,353,311,353.1,307.6,353.1z"/>
	<path class="st4" d="M174.4,293.3c3.5,0.4,8.9-1.8,11.7,0.8c3,2.9,0.8,8.4,1.1,12.8c0.2,3.4-0.1,6.7,0.1,10.1
		c0.1,2.8-1.2,3.8-3.9,3.8c-6.6-0.1-13.2-0.1-19.8,0c-2.6,0-4-0.9-3.9-3.7c0.1-6.7,0.1-13.5,0-20.2c-0.1-2.9,1.2-3.7,3.9-3.6
		C166.9,293.4,170.2,293.3,174.4,293.3z"/>
	<path class="st4" d="M274,325.6c3.5,0,7,0.1,10.6,0c2.3-0.1,3.3,0.9,3.3,3.2c-0.1,7-0.1,14.1,0,21.1c0,2.5-1.1,3.2-3.4,3.1
		c-6.7-0.1-13.5-0.1-20.2,0c-2.7,0-4-0.9-3.9-3.7c0.1-6.7,0.1-13.5,0-20.2c0-2.5,1-3.7,3.6-3.6C267.2,325.7,270.6,325.6,274,325.6z"
		/>
	<path class="st4" d="M187.1,273.4c0,3.2-0.1,6.4,0,9.7c0.1,2.7-0.8,3.9-3.7,3.8c-6.7-0.1-13.5-0.1-20.2,0c-2.9,0.1-3.7-1.2-3.7-3.9
		c0.1-6.6,0.1-13.2,0-19.8c-0.1-3,1.3-4,4.1-4c6.4,0.1,12.9,0.1,19.3,0c2.9,0,4.3,1,4.1,4C187,266.7,187.1,270,187.1,273.4z"/>
	<path class="st4" d="M226.9,338.9c0-3.4,0.1-6.7,0-10.1c-0.1-2.4,1-3.3,3.3-3.2c6.9,0.1,13.8,0.1,20.7,0c2.6,0,3.6,1.2,3.5,3.6
		c0,6.7,0,13.5,0,20.2c0,2.4-0.9,3.7-3.5,3.7c-6.9-0.1-13.8-0.1-20.7,0c-2.7,0-3.4-1.2-3.4-3.6C227,346,226.9,342.5,226.9,338.9z"/>
	<path class="st15" d="M321.7,292.6c0,7.8,0,15.6,0.1,23.5c0.1,3.2-0.8,4.8-4.4,4.7c-6.4-0.2-12.9,0-19.3-0.1
		c-1.9,0-3.9,0.2-3.9-2.6c0-7.8,0-15.6,0.1-23.5c0-0.6,0.7-1.3,1.1-1.9c2.7-1.5,5.5-0.9,8.3-0.3c1.9,0.4,3.9,0.3,5.9,0.3
		c2.4-0.1,4.7,0.3,7-0.6c0.9-0.3,1.8-0.3,2.7-0.3C320.1,291.9,321.1,291.7,321.7,292.6z"/>
	<path class="st16" d="M344.7,258.4c1.4,1.3,3.2,1,4.8,0.9c4.6-0.5,5.8,1.5,5.6,5.8c-0.3,5.9-0.2,11.9,0,17.9c0.1,2.9-0.9,4.1-3.9,4
		c-7.3-0.2-14.6-0.1-22-0.2c-1.3-2.6-0.1-4.4,2.1-5.6c1.6-0.9,3.2-1.7,4.7-2.6c-0.1,0.1-0.1,0-0.2,0c-4.8,3-5.3,2.8-6.6-2.5
		c-0.3-1.2-0.2-2.4-0.4-3.6c-0.2-1.5-1.1-2.5-2.1-3.6c-0.4-0.8-0.7-1.5-0.2-2.4c0.3-0.6,1.1-1.3,1-1.9c-0.4-3.5,1.2-5.4,4.5-6.1
		c3.6,1.7,6.9-0.7,10.4-0.6C343.2,257.7,344.1,257.3,344.7,258.4z"/>
	<path class="st15" d="M283.3,286.8c-6.3,0-12.6,0-18.9,0.1c-2.9,0.1-4.2-0.8-4.1-3.9c0.2-6.6,0.1-13.2,0-19.8c0-2.7,1-3.9,3.8-3.9
		c6.8,0.1,13.5,0.1,20.3,0c2.3,0,3.4,0.9,4,2.8c0.9,1.5-0.1,2.5-0.9,3.6c-5.3,5.9-4.4,12.9-3.5,20
		C283.9,286.1,283.6,286.5,283.3,286.8z"/>
	<path class="st17" d="M326.4,266.5c0.3,0.5,0.7,1,1,1.4c1.5,1.9,1.9,4.1,2.3,6.4c1.1,7.3,1,7.7-3.7,10c-1.6,0.4-3.3,1.2-5,0.2
		c-0.9-0.6-1.6-1.5-1.7-2.6c-0.3-5.9-1.2-11.8,0.6-17.6c2.5-2.5,3.9-0.1,5.6,1.2C325.8,265.8,326.1,266.1,326.4,266.5z"/>
	<path class="st18" d="M325.6,265.5c-1.9,0.4-2.7-1.8-4.4-1.8c-4.5,0.5-7.8-3.3-12.2-3.4c-2.8-0.8-5.7-0.7-8.5-0.1
		c-1.1,0-2.1-0.1-2.9-0.9c-1-1.7-0.2-2.9,1.2-3.9c1.2-0.2,2.5-0.6,3.6,0.3c7.8,0.4,15.1,2.1,21.2,7.2
		C324.6,263.4,325.8,263.9,325.6,265.5z"/>
	<path class="st19" d="M283.3,286.8c0-0.3,0-0.6,0-0.9c0.2-0.7,0.5-1.2,1.3-1.4c1.5-0.1,2.5,1,3.7,1.5c5.3,3,11.3,3.5,17.2,4.5
		c1.2,0.2,2.4,0.3,3.5,1c0.8,0.7,1.3,1.4,1,2.6c-4.9,0.4-9.7-0.6-14.5-1.3C290.8,291.7,286.6,290.1,283.3,286.8z"/>
	<path class="st20" d="M325.6,283.2c4.9-1.5,3.2-5.7,3.6-9c-0.1-1.1-1.2-2.5,0.8-3c0.5,2.8,0.9,5.6,1.4,8.5c2.5-0.2,3.9-2.3,6-3.2
		c1-0.3,1.2,0.1,1.1,1c-2.8,3.3-8.6,3.7-9.3,9.2c-0.2,0.1-0.5,0.2-0.7,0.2c-0.6-0.1-1.1-0.4-1.3-1c0.3-1.3-1-1.2-1.6-1.7
		C325.3,283.9,325.3,283.5,325.6,283.2z"/>
	<path class="st21" d="M298.9,255.4c-0.3,1.2-0.6,2.3-0.9,3.5c-0.2,1.7-1.4,2.5-2.7,3.3c-0.6,0.3-1.1,0.6-1.7,0.9
		c-2,0.7-3,3.2-5.5,2.9c-0.7-0.2-1.1-0.7-1.2-1.4c0.5-0.9,1-1.7,1.5-2.6c2.8-3.5,6-6.4,10.5-7.4
		C299.5,254.9,299.5,255.1,298.9,255.4z"/>
	<path class="st22" d="M343,257.2c3.9-1.2,7.8-2,13.2-2.3c-3.9,2.7-7.2,2.8-10.4,3.1C345,257.4,343.7,258.2,343,257.2z"/>
	<path class="st23" d="M342.4,258.4c-3.5,0.3-7,3.2-10.5,0.1c2.8-0.3,5.7-0.7,8.5-1C341,257.9,342.1,257.4,342.4,258.4z"/>
	<path class="st24" d="M327.5,285.9c0.3,0.4,0.6,0.7,0.9,1.1c-1.2,2.4-3.2,3.9-5.6,5c-0.8-0.1-1.2-0.6-1.3-1.3
		C322.5,287.8,324.7,286.3,327.5,285.9z"/>
	<path class="st25" d="M321.9,290.7c0.3,0.4,0.6,0.8,0.9,1.2c-0.4,0.2-0.7,0.5-1.1,0.7c-0.6,0.1-1.1,0.3-1.7,0.4
		c-0.7-0.4-2,0.1-2-1.3C319,290.1,320.2,289.4,321.9,290.7z"/>
	<path class="st9" d="M342.4,258.4c-0.7-0.3-1.3-0.6-2-0.9c0.9-0.1,1.7-0.2,2.6-0.2c0.9,0.3,1.9,0.6,2.8,0.9
		c-0.4,0.1-0.7,0.2-1.1,0.3C344,258.4,343.2,258.4,342.4,258.4z"/>
	<path class="st26" d="M298.9,255.4c0-0.3,0-0.5,0-0.8c0.4-0.1,0.7-0.3,1.1-0.4c0.8-0.2,1.6-0.4,2.4-0.6c0,0.6,0,1.2,0,1.8
		C301.2,255.4,300,255.4,298.9,255.4z"/>
	<path class="st27" d="M166,179.8c0.1,4,0.3,7.9,0.1,11.9c-0.1,3.2,1.2,4.4,4.3,4.2c3.5-0.1,7-0.1,10.5,0c3.1,0.1,4.5-1,4.3-4.2
		c-0.2-4,0.1-7.9,0.1-11.9c6.5,5.2,5.2,14.1,0.1,19.4c-4.8,5-14.9,5-19.6,0C160.8,193.9,159.5,185,166,179.8z"/>
	<path class="st27" d="M327.4,179.8c0.1,4,0.3,7.9,0.1,11.9c-0.1,3.2,1.2,4.4,4.3,4.2c3.5-0.1,7-0.1,10.5,0c3.1,0.1,4.5-1,4.3-4.2
		c-0.2-4,0.1-7.9,0.1-11.9c6.5,5.2,5.2,14.1,0.1,19.4c-4.8,5-14.9,5-19.6,0C322.3,193.9,320.9,185,327.4,179.8z"/>
	<path class="st25" d="M309.9,294c-0.3-0.5-0.6-1-0.9-1.5c1.3-2,3.3-2,5.4-1.6c1.4,0.4,2.5,1.2,3.3,2.5
		C315.1,294.7,312.5,294,309.9,294z"/>
	<path class="st19" d="M317.6,293.4c-1-0.3-2-0.6-3.1-0.9c1-1.3,2.2-1.2,3.4-0.3c0.7,0.3,1.3,0.6,2,0.8
		C319.2,293.2,318.4,293.3,317.6,293.4z"/>
	<path class="st28" d="M330,271.2c-0.3,1-0.5,2-0.8,3c-1-2-1.7-4-1.8-6.3C329.2,268.3,329.6,269.7,330,271.2z"/>
	<path class="st29" d="M338.5,277.5c-0.4-0.3-0.7-0.7-1.1-1c0.8-0.9,1.5-1.9,3.2-1.7C340.9,276.5,339.6,276.9,338.5,277.5z"/>
	<path class="st30" d="M286.9,264.7c0.3,0.3,0.6,0.7,0.9,1c0.6,0.5,0.7,1.1,0.8,1.8c-0.2,1.5-1.2,2.8-1.8,4.2
		c-1.2,3.2-1.4,6.3,1.7,8.7c0.4,0.6,0.6,1.2,0.6,1.9c-0.1,0.7-0.6,1.2-1.2,1.4c-1.2,0.4-3-1.1-3.7,1c-0.3,0.4-0.6,0.7-0.9,1.1
		C280.1,279,281.6,270.4,286.9,264.7z"/>
	<path class="st4" d="M294.1,261.1c1.3-0.7,2.5-1.5,3.8-2.2c0.6-0.1,1.2-0.3,1.8-0.4c3.4,0.3,6.9,0.3,10.3,0
		c4.1,0.9,7.8,2.6,11.1,5.2c0.3,6.8-0.8,13.7,0.6,20.4c0.3,1.5-0.7,1.8-1.8,2.1c-8.8,2.5-17.6,3-26.2-0.8c-0.4-0.5-0.6-1-0.8-1.5
		c-0.4-6-0.1-11.9-0.2-17.9C292.8,264.2,293.3,262.6,294.1,261.1z"/>
	<path class="st31" d="M294.4,284.9c9.2,1.9,18.3,2.8,27.3-0.8c1.4,0.2,2.4-1.4,3.9-0.8c0,0.4,0.1,0.8,0.1,1.2
		c-0.4,2.5-2.4,3.5-4.5,4c-8.3,2.2-16.7,2.7-25.2,0.4c-1.7-0.5-3.2-1-3.9-2.8C292.3,284.4,293.2,284.3,294.4,284.9z"/>
	<path class="st32" d="M310,258.4c-3.4,1.4-6.8,1.3-10.3,0C303.2,257.7,306.6,257.7,310,258.4z"/>
	<path class="st33" d="M292.4,285.8c11.3,3.9,22.4,3.6,33.3-1.3c1.2-0.3,2.1-0.2,1.8,1.4c-1.6,2-3.3,3.7-5.6,4.9
		c-1.3,0.5-2.7,1-4,1.4c-1.1,0.1-2.3,0.2-3.4,0.3c-1.9,0-3.7,0-5.6,0c-7.6-1.1-15.5-0.9-22.2-5.6c0-1.2-0.3-2.4,1-3.2
		C289.9,282.9,291.5,283.5,292.4,285.8z"/>
	<path class="st34" d="M287.9,283.9c-0.2,1,0,2.2-1.1,3c-0.9-0.7-1.7-1.4-2.6-2.2c-0.2-1.3-0.5-2.5-0.9-4.4c1.7,1.1,3,1.9,4.3,2.8
		c0.4,0.1,0.6,0.2,0.5,0.4C288.1,283.8,288,283.9,287.9,283.9z"/>
	<path class="st35" d="M288.7,282.3c-0.3-0.4-0.6-0.7-0.9-1.1c-3-4.6-1.1-9.3-0.1-14c0.1-0.5,0.1-1,0.2-1.5c1.8-1.3,3.1-3.3,5.4-4
		c1.2,7.1,0.2,14.3,0.5,21.4C291.5,286.2,290.2,283.5,288.7,282.3z"/>
	<path class="st33" d="M293.3,283.9c0-7.4,0-14.8-0.1-22.2c0.3-0.2,0.6-0.4,0.8-0.6c0,7.7,0,15.4,0,23.1
		C293.7,284.4,293.5,284.4,293.3,283.9z"/>
	<path class="st36" d="M287.6,267.2c0,4.7,0.1,9.3,0.1,14C283,277.1,283,274.9,287.6,267.2z"/>
	<path class="st37" d="M293.3,283.9c0.2,0.2,0.5,0.3,0.8,0.3c0,0.3,0.1,0.5,0.3,0.7c-0.7,0.3-1.3,0.6-2,0.9c-1.5-0.6-3-1.2-4.6-1.8
		c0-0.3-0.1-0.5-0.2-0.8c0.3-0.3,0.7-0.6,1-0.9C290.4,282.4,291.4,284.3,293.3,283.9z"/>
</g>
</svg>
