<?xml version="1.0" encoding="utf-8"?>
<!-- Generator: Adobe Illustrator 21.0.0, SVG Export Plug-In . SVG Version: 6.00 Build 0)  -->
<svg version="1.1" id="Layer_1" xmlns="http://www.w3.org/2000/svg" xmlns:xlink="http://www.w3.org/1999/xlink" x="0px" y="0px"
	 viewBox="0 0 500 500" style="enable-background:new 0 0 500 500;" xml:space="preserve">
<style type="text/css">
	.st0{fill:#83AAA5;}
	.st1{fill:#BAB019;}
	.st2{fill:#F1F1F1;}
	.st3{fill:#F64343;}
	.st4{fill:#B2B2B2;}
	.st5{fill:#ED2D24;}
	.st6{fill:#ED2C24;}
	.st7{fill:#ED322E;}
	.st8{fill:#EE3124;}
	.st9{fill:#EC1C24;}
	.st10{fill:#EC3239;}
	.st11{fill:#EE3424;}
	.st12{fill:#EF4923;}
	.st13{fill:#EE3823;}
	.st14{fill:#F05723;}
	.st15{fill:#B3B3B3;}
	.st16{fill:#B3B2B2;}
	.st17{fill:#ECEBEB;}
	.st18{fill:#EC3138;}
	.st19{fill:#EA2B32;}
	.st20{fill:#E8272E;}
	.st21{fill:#EC2B32;}
	.st22{fill:#ED3F46;}
	.st23{fill:#EA3B42;}
	.st24{fill:#EA262D;}
	.st25{fill:#E6383E;}
	.st26{fill:#EC262E;}
	.st27{fill:#EC1D25;}
	.st28{fill:#E43037;}
	.st29{fill:#E2353C;}
	.st30{fill:#EA2129;}
	.st31{fill:#EA3138;}
	.st32{fill:#F1F0F0;}
	.st33{fill:#F1EAEB;}
	.st34{fill:#BBA1A2;}
	.st35{fill:#F0EFEF;}
	.st36{fill:#B4ADAE;}
	.st37{fill:#ED323A;}
	.st38{fill:#F1D19D;}
	.st39{fill:#F1D19E;}
	.st40{fill:#FEFEFE;}
	.st41{fill:#FE3F3F;}
	.st42{fill:#211F1C;}
	.st43{fill:#323232;}
	.st44{fill:#626262;}
	.st45{fill:#020202;}
	.st46{fill:#EEEEEE;}
	.st47{fill:#040404;}
	.st48{fill:#F8F8F8;}
	.st49{fill:#F5F5F5;}
	.st50{fill:#F4F4F4;}
	.st51{fill:#0A0A0A;}
	.st52{fill:#050505;}
	.st53{fill:#F05A24;}
	.st54{fill:#EBCF9A;}
	.st55{fill:#ECCF9B;}
	.st56{fill:#EDCF9B;}
	.st57{fill:#EFD09C;}
	.st58{fill:#E5CB96;}
	.st59{fill:#E9CD99;}
	.st60{fill:#5F5F5F;}
</style>
<g>
	<path class="st0" d="M272.1,436c-12.1,0-24.2,0-36.3,0c-12.6-1-25.1-3-37.2-6.9c-14.5-4.7-28.4-10.7-41.4-18.7
		c-1.5-0.9-3.4-1.7-3.4-4c2.7-1.9,4.7,0.2,6.7,1.3c9.7,5.1,19.9,8.5,30.6,10.4c5,0.9,5.8,0.6,7.6-4.3c2.5-6.8,4.7-13.7,6.9-20.7
		c1.2-3.8,3.2-6.9,5.9-9.8c8.4-9.1,16.1-18.8,21.7-29.9c2.6-5.2,4.6-10.5,3.3-16.5c-0.4-1.7-0.1-3.4,1.3-4.7
		c11.6-7.1,23.1-14.5,34.6-21.8c8.6-5.4,9.5-10.4,4-19c-8.2-12.8-16.4-25.6-24.4-38.4c-0.6-0.9-1.2-1.8-1.8-2.7
		c-4.6-6-9.3-7.2-15.7-3.3c-9,5.4-17.8,11.3-26.7,16.9c-2.6,1.6-5,3.8-8.2,4.1c-0.9-0.2-1.6-0.8-2.4-1.2c-3.9-2.2-6.1-1.5-8.1,2.5
		c-1,2-0.9,4.5-2.7,6.2c-0.6,0.3-1.2,0.3-1.8,0.3c-8.6-0.3-8.6-0.3-11.6,7.7c-0.6,0.7-1.5,1.1-2.4,1.1c-5.1,0-7.6,3.2-9.1,7.5
		c-0.9,1.9-2.6,3-4.3,4.1c-7.1,4.4-14.1,8.9-21.1,13.4c-6.3,4.1-7.8,9.6-3.8,16.2c7.3,12.2,15.1,24,22.7,36c1.7,2.7,4,5.2,4.2,8.6
		c-1.8,9.2-3.2,18.5-5,27.6c-0.5,2.7,0,5.2,0.1,7.8c-2.1,2.2-3.7,0.2-5.2-0.8c-6.1-4-11.9-8.5-17.3-13.3
		c-16.9-14.8-31.1-31.9-41.7-51.8c-11.8-21.9-20-44.9-21-70.1c0-0.5-0.2-0.9-0.5-1.3c0-12.4,0-24.8,0-37.2c0.9-12.5,3-24.8,6.8-36.8
		c8.3-26.4,21.6-49.9,40.2-70.4c15.9-17.6,34.4-31.6,55.5-42.2c16.4-8.2,33.7-14,52-16.7c4.6-0.7,9.2-0.3,13.7-1.3
		c11.8,0,23.6,0,35.3,0c8.2,1.2,16.5,1.2,24.7,3.2c31.6,7.8,59.6,22.1,83.8,44.2c22.9,20.9,39.6,45.8,50.2,74.9
		c5.2,14.3,9.1,29,9.1,44.4c0,0.6,0,1.2,0.5,1.7c0,12.1,0,24.2,0,36.3c-1,12.2-2.9,24.2-6.6,35.9c-8.4,26.9-21.8,50.8-40.8,71.7
		c-15.9,17.4-34.2,31.4-55.2,41.8c-16.4,8.2-33.7,14-52,16.7C281.3,435.4,276.6,435,272.1,436z"/>
	<path class="st38" d="M154,406.2c-0.6-1.4-2.4-2.2-2-4.3c2.3-10.7,3.3-21.7,6.3-32.3c0.3,0,0.6,0,0.9,0.2c10.6,7,12.2,6.6,19.2-4.1
		c7.7-9.9,17.9-16.6,29.2-21.7c4.5-2,7.9-4.7,10.2-9c1-1.9,2.1-3.8,3.4-5.5c3.5-4.4,5.6-8.8,2.1-14.3c-1.1-1.8-1.5-4.4,0.6-6
		c2-1.6,4.2-0.4,6.1,0.6c4.2,2.4,7.2,5.8,8.4,10.6c0.6,2.6,1.3,5.1,1.7,7.7c0,1.8-0.3,3.4-1.7,4.6c-0.2,0.7-0.7,1.5-0.5,2.2
		c2.2,13.7-5.7,23.6-12.7,33.7c-2.5,3.6-5,7.2-8.1,10.1c-7.4,7-11.1,15.8-13.8,25.2c-1.2,4.2-3,8.1-4.1,12.3c-0.9,3.7-3,4-6.1,3.4
		c-12.5-2.2-24.3-6-35.4-12.2C156.6,407.1,155.5,406,154,406.2L154,406.2z"/>
	<path class="st38" d="M381.8,156c10.9,1.5,21.5,4.6,32.2,6.6c2.1,0.4,2.2,1.8,2.5,3.3c2.6,14.7,1.5,29.3-2.3,43.7
		c-0.6,2.3-2.1,2.3-3.9,2.2c-6.3-0.4-12.7-0.4-19-1.3c-7.1-1-13.7-0.3-20.4,2.4c-6.6,2.6-13.6,4.2-20.5,5.7
		c-11.3,2.5-22.3,3-32.9-2.7c-1.7,0.6-3.4,0.4-5-0.4c-2.8-1.4-5.5-2.9-7.8-5c-4.2-3.7-5.9-8.3-5.1-13.7c0.5-3.8,2.6-4.8,5.8-2.8
		c0.5,0.3,1.1,0.7,1.4,1.2c3.4,5.3,8.2,4.6,13.5,3.8c8.6-1.3,16-3.8,22.5-10.3c7.8-7.8,17.7-13,28.5-15.8c1.5-0.4,3.1-0.4,4.6-0.7
		c5.4-1.3,8.1-5.9,6.7-11.3C382.3,159.2,380.9,157.8,381.8,156z"/>
	<path d="M238.5,332.9c-0.1-1.6-0.3-3.3,1.1-4.6c0.3-2,2.1-2.5,3.5-3.5c7.2-4.9,14.8-9.1,21.9-14c5.2-3.6,5.6-5.4,2.2-10.7
		c-9.1-14.2-18-28.6-27.2-42.7c-3.9-5.9-5.4-6.1-11.2-2.4c-27.1,17.1-54.2,34.3-81.2,51.6c-4.8,3.1-5.5,5.5-2.5,10.3
		c9.1,14.4,18.3,28.8,27.4,43.1c1.7,2.7,4.3,4.3,6.6,6.3c-2.2,3.4-2.9,8.3-8.1,9.1c-5.5,0.8-9.6-1.3-12.4-5.9
		c-9.1-14.4-18.2-28.7-27.3-43.1c-4.5-7.1-3-13.2,3.9-17.8c8.5-5.6,17.5-10.4,25.5-16.8c3.5-3.3,7.5-5.9,11.8-7.9
		c4.4-3.2,8.5-6.9,13.9-8.4c3.9-3.5,7.9-7,13.4-8.1c11-6.9,21.9-13.9,32.9-20.8c8.7-5.5,14.1-4.3,19.7,4.5
		c8.7,13.7,17.4,27.4,26.1,41.1c4.9,7.7,3.6,13.4-4.1,18.4c-10.8,6.9-21.7,13.8-32.5,20.6C240.8,332,239.8,332.9,238.5,332.9z"/>
	<path d="M381.8,156c5.9,10.5,2,17.1-10.2,17.9c-6.7-15.5-18.4-27.7-27.3-41.8c-1.7-2.7-3.6-5.4-5.5-8c-4-5.5-5.9-5.9-11.4-1.9
		c-11.9,8.4-23.9,16.7-35.8,25.1c-14.3,10.1-28.7,20-43,30.2c-4.8,3.5-5.2,5.9-1.8,10.8c9.7,14,19.5,27.9,29.3,41.9
		c3.6,5.1,5.4,5.4,10.7,1.9c7.1-4.7,13.9-9.8,21-14.6c1.6-1.1,3.2-2.5,5.4-2.5c1.5,0.4,3,0.8,4.5,1.2c-12.2,8.6-24.4,17.4-36.8,25.9
		c-5.3,3.6-11.7,2.2-15.5-3.2c-10.1-14.2-20.2-28.5-30.1-42.9c-4.5-6.5-3.3-12.7,3.2-17.3c10.9-7.8,21.9-15.6,32.8-23.4
		c3.4-4.4,8.3-6.7,12.7-9.6c3.9-3.5,8.2-6.3,12.6-8.9c4.1-2.9,7.5-6.8,12.8-7.8c8.4-5.9,16.7-11.7,25.1-17.6
		c6.9-4.8,13.1-3.8,18,3.1C362.3,128.2,372,142.1,381.8,156z"/>
	<path class="st53" d="M291.5,355.5c5.1,3,9.3,5.4,13.4,7.8c3,1.7,4.5,4,2.5,7.2c-1.8,3-4.4,2.8-7.3,1.2
		c-10.2-5.8-20.5-11.5-30.8-17.3c-4.4-2.5-4.9-6-0.8-9.1c7.5-5.8,12.6-13.1,15.4-22.1c1-3.1,2.8-4.9,6.1-4c3.9,1.1,3.9,4.1,3,7.1
		c-2.1,6.9-5.7,13-10.5,19.1c9.5,1.2,18.4,0.6,26.9-2.2c26-8.4,41.2-26.4,46.2-53c1.2-6.2,2-12.5,3.1-18.8c0.5-3.1,1.7-6,5.6-5.1
		c3.7,0.8,4.5,3.4,3.8,7.1c-1.6,7.6-2.5,15.3-4.1,22.8c-6.9,33.8-35.5,57.7-70.1,59C293.6,355.2,293.1,355.3,291.5,355.5z"/>
	<path class="st53" d="M216.2,141.9c-5-2.9-9-5.3-13.1-7.6c-2.9-1.7-4.5-4-2.5-7.2c1.8-2.9,4.4-2.8,7.2-1.2
		c10.2,5.8,20.5,11.5,30.8,17.3c4.5,2.5,4.9,5.9,0.8,9.1c-7.6,5.9-12.8,13.4-15.6,22.5c-1,3.4-3.4,4.4-6.5,3.4
		c-3.2-1.1-3.5-3.7-2.6-6.5c1.8-5.8,4.3-11.3,8.2-16.1c2.5-3,1.4-3.9-1.8-4c-20.4-0.6-38,6-52.1,21c-11,11.6-15.9,25.9-17.9,41.5
		c-0.6,4.4-1.4,8.9-2.2,13.3c-0.5,2.8-2.2,4.5-5.3,3.9c-3-0.6-4.6-2.6-4-5.7c2-10,2.8-20.3,5.7-30.1c9-30.3,35.3-51.2,66.8-53.2
		C213.2,142.2,214.2,142.1,216.2,141.9z"/>
	<path class="st54" d="M284.2,146c-4,3.4-8.4,6.4-12.9,9c-2.2-7.9,0.1-10.8,8.2-10.2c1.5,0.1,3.1,0.6,4.6-0.1
		C284.5,145.1,284.6,145.6,284.2,146z"/>
	<path class="st55" d="M199.6,267.5c-4.4,2.8-8.7,5.5-13.1,8.3c-0.3-0.2-0.5-0.4-0.4-0.6c0.1-0.2,0.2-0.4,0.3-0.4
		c0.3-1.5,0.5-3.1,1-4.5C189.5,263.2,194.2,262.1,199.6,267.5z"/>
	<path class="st56" d="M284.2,146c0-0.4-0.1-0.8-0.1-1.3c0.3-8.4,4.7-11.7,12.2-8.9c0.7,0.2,0.9,0.6,0.8,1.3
		C292.8,140.1,288.5,143.1,284.2,146z"/>
	<path class="st57" d="M186.4,274.8c0,0.3,0.1,0.7,0.1,1c-4.5,3.1-9,6.2-13.9,8.7c-0.4-0.4-0.5-0.8-0.1-1.2
		C172.9,274.7,176.2,272.7,186.4,274.8z"/>
	<path class="st58" d="M297.1,137.2c-0.3-0.4-0.6-0.9-0.8-1.3c2-4.5,4.7-8.2,10.3-8.2c1.2,0,2.1,0.2,2.9,1.1
		C305.3,131.6,301.2,134.4,297.1,137.2z"/>
	<path class="st59" d="M172.5,283.3c0,0.4,0.1,0.8,0.1,1.2c-3.8,2.8-7.6,5.7-12,7.4C162,285.1,164.4,283.4,172.5,283.3z"/>
	<path class="st2" d="M179,366.4c-3,0.3-4.9-1.2-6.4-3.6c-9.8-15.4-19.6-30.8-29.4-46.2c-3-4.7-2.4-7.3,2.4-10.4
		c27.9-17.8,55.8-35.5,83.7-53.2c5.1-3.3,7.5-2.8,10.7,2.3c9.6,15.1,19.2,30.2,28.8,45.4c3.3,5.2,2.8,7.5-2.3,10.7
		c-9,5.7-18,11.3-27.1,17c-1.5-1.7-1.5-3.9-1.9-6c-1.1-5.9-4.6-10-10.2-12.2c-3-1.2-4.1,0-3.6,3c0.2,1.2,0.4,2.6,1.2,3.5
		c3.7,4.3,1.6,7.7-1.1,11.4c-2.2,3-4.2,6.1-6,9.4c-2,3.5-4.6,5.8-8.4,7.3C197.6,349.4,187.6,356.9,179,366.4z"/>
	<path class="st2" d="M313.1,214.8c-9.3,6.6-18.6,13.3-28,19.8c-3.2,2.2-6.2,1.7-8.5-1.5c-10.9-15.4-21.7-30.9-32.5-46.3
		c-2.7-3.9-1.8-6.6,2.5-9.7c23-16.2,46.1-32.3,69.1-48.4c4.3-3,8.6-6.1,12.9-9c3.9-2.7,6.8-2.2,9.5,1.6c10.7,15.2,21.2,30.4,32,45.6
		c1.6,2.3,1.4,4.6,1.3,7.1c-13.4,4.5-25.1,11.7-34.7,22.1c-2.3,2.5-5.4,2-8.1,2.8c-2.5,0.7-5.2,0.7-7.7,1.4c-5.9,1.7-11.4,2.6-15-4
		c-0.7-1.3-2.3-2.6-3.8-2.1c-2.1,0.7-1.2,2.9-1.3,4.5c-0.4,5.3,2.1,9.2,6.2,12.3C308.9,212.1,311.1,213.4,313.1,214.8z"/>
	<path class="st43" d="M145.9,332.2c1.3,0.4,2.4,0.9,3.1,2c3.2,5.1,6.4,10.2,9.6,15.3c1,1.6,1.8,3.6-0.1,5c-2.1,1.5-3.8,0.3-5-1.6
		c-3.3-5-6.5-10.1-9.8-15.2c-0.8-1.3-1.1-2.6-0.3-3.9C143.9,332.9,144.7,332.1,145.9,332.2z"/>
	<path class="st60" d="M253.1,264.6c4.2,6.6,8.4,13.1,12.6,19.7c0.4,0.7,0.1,1.2-0.5,1.5c-0.3,0.2-1,0.1-1.2-0.2
		c-4.3-6.6-8.5-13.3-12.7-19.9C251.8,265.4,252.5,265,253.1,264.6z"/>
	<path class="st43" d="M355,128.3c1.2,0.1,1.9,0.8,2.6,1.7c3.5,5,7.1,10.1,10.7,15.1c1.2,1.6,1.8,3.6-0.2,4.9
		c-2,1.3-3.7,0.5-5.1-1.5c-3.3-4.9-6.7-9.6-10.1-14.4c-1-1.4-1.2-2.8-0.6-4.4C352.9,128.6,353.9,128.3,355,128.3z"/>
	<path class="st60" d="M263.8,221.6c-0.2,0.3-0.3,0.9-0.6,1c-0.6,0.3-1.2,0-1.5-0.6c-4.2-5.9-8.3-11.9-12.4-17.9
		c-0.4-0.5-0.5-1.1,0.1-1.6c0.6-0.5,1.1-0.4,1.5,0.2c4.2,6.1,8.5,12.1,12.7,18.2C263.7,221.1,263.7,221.3,263.8,221.6z"/>
</g>
</svg>
